<svg width="32" height="32" viewBox="0 0 32 32" fill="none" xmlns="http://www.w3.org/2000/svg">
<path d="M13.7915 5.48585L2.85107 23.75C2.62551 24.1406 2.50616 24.5835 2.50489 25.0346C2.50363 25.4857 2.6205 25.9292 2.84387 26.3211C3.06725 26.713 3.38934 27.0396 3.77811 27.2683C4.16688 27.4971 4.60877 27.6201 5.05982 27.625H26.9407C27.3917 27.6201 27.8336 27.4971 28.2224 27.2683C28.6111 27.0396 28.9332 26.713 29.1566 26.3211C29.38 25.9292 29.4969 25.4857 29.4956 25.0346C29.4943 24.5835 29.375 24.1406 29.1494 23.75L18.209 5.48585C17.9787 5.10624 17.6545 4.79238 17.2676 4.57456C16.8807 4.35674 16.4442 4.24231 16.0002 4.24231C15.5563 4.24231 15.1198 4.35674 14.7329 4.57456C14.346 4.79238 14.0218 5.10624 13.7915 5.48585Z" fill="#FB0F00" stroke="#FB0F00" stroke-width="2" stroke-linecap="round" stroke-linejoin="round"/>
<path d="M16.0005 12.7708V17.9374" stroke="white" stroke-width="3" stroke-linecap="round" stroke-linejoin="round"/>
<circle cx="16" cy="22.5" r="1.5" fill="white"/>
</svg>
