<svg width="16" height="18" viewBox="0 0 16 18" fill="none" xmlns="http://www.w3.org/2000/svg">
<path fill-rule="evenodd" clip-rule="evenodd" d="M13.6687 3.29842C12.9307 2.55556 12.0527 1.96653 11.0854 1.56545C10.1181 1.16437 9.08084 0.959217 8.03371 0.961879C3.64281 0.961879 0.0683305 4.53547 0.0665556 8.92814C0.0665556 10.332 0.433055 11.7022 1.12967 12.9108L0 17.0382L4.22318 15.9298C5.39135 16.5657 6.70011 16.8991 8.03016 16.8997H8.03371C12.4237 16.8997 15.9982 13.3261 16 8.93347C16.003 7.88675 15.7985 6.84982 15.3984 5.88261C14.9982 4.9154 14.4104 4.03708 13.6687 3.29842ZM8.03371 15.5553H8.03104C6.84504 15.5554 5.68086 15.2363 4.66067 14.6315L4.41929 14.4878L1.91325 15.1453L2.58147 12.7023L2.4244 12.452C1.76132 11.3964 1.4103 10.1748 1.41187 8.92814C1.41364 5.27734 4.3838 2.30719 8.03637 2.30719C8.90625 2.30526 9.76788 2.47587 10.5714 2.80915C11.3749 3.14244 12.1043 3.63177 12.7174 4.24884C13.3339 4.86296 13.8224 5.59317 14.1549 6.39725C14.4875 7.20133 14.6573 8.06335 14.6547 8.93347C14.6529 12.5843 11.6827 15.5553 8.03371 15.5553ZM11.6659 10.5956C11.4662 10.4953 10.4883 10.0143 10.3055 9.94777C10.1236 9.88122 9.99133 9.84838 9.85822 10.0472C9.72511 10.2459 9.34352 10.6941 9.22727 10.8272C9.11102 10.9603 8.99477 10.9763 8.79599 10.8769C8.59721 10.7775 7.95561 10.5672 7.1951 9.8892C6.6032 9.3612 6.20387 8.70984 6.08762 8.51017C5.97137 8.3105 6.0752 8.20313 6.17547 8.10374C6.2651 8.015 6.37425 7.87124 6.47364 7.75499C6.57303 7.63874 6.60587 7.55621 6.67242 7.4231C6.73898 7.28999 6.70614 7.17373 6.65556 7.07434C6.60587 6.97407 6.20742 5.99437 6.04147 5.59592C5.88085 5.2099 5.71668 5.26137 5.59422 5.25605C5.46739 5.25086 5.34046 5.24849 5.21352 5.24895C5.11258 5.25152 5.01327 5.27492 4.9218 5.31768C4.83033 5.36043 4.74868 5.42163 4.68196 5.49742C4.49916 5.69709 3.98535 6.17806 3.98535 7.15776C3.98535 8.13746 4.69883 9.08432 4.79821 9.21744C4.8976 9.35055 6.2021 11.3605 8.19876 12.2231C8.67441 12.4281 9.04535 12.5505 9.33376 12.6428C9.8103 12.7946 10.2442 12.7724 10.5877 12.7218C10.9701 12.665 11.7653 12.2408 11.9312 11.7758C12.0971 11.3108 12.0971 10.9124 12.0475 10.829C11.9978 10.7456 11.8638 10.695 11.6659 10.5956Z" fill="#65B32E"/>
</svg>
