<svg width="18" height="16" viewBox="0 0 18 16" fill="none" xmlns="http://www.w3.org/2000/svg">
<path d="M16.2527 2.80769H13.4505L12.7829 0.936813C12.7368 0.808794 12.6523 0.698136 12.5409 0.619954C12.4296 0.541772 12.2968 0.49988 12.1607 0.5H5.83926C5.5611 0.5 5.31179 0.675138 5.21907 0.936813L4.54943 2.80769H1.74723C0.836514 2.80769 0.098877 3.54533 0.098877 4.45604V13.8516C0.098877 14.7624 0.836514 15.5 1.74723 15.5H16.2527C17.1634 15.5 17.9011 14.7624 17.9011 13.8516V4.45604C17.9011 3.54533 17.1634 2.80769 16.2527 2.80769ZM16.4176 13.8516C16.4176 13.9423 16.3434 14.0165 16.2527 14.0165H1.74723C1.65657 14.0165 1.58239 13.9423 1.58239 13.8516V4.45604C1.58239 4.36539 1.65657 4.29121 1.74723 4.29121H5.59407L5.9464 3.30632L6.41824 1.98352H11.5796L12.0515 3.30632L12.4038 4.29121H16.2527C16.3434 4.29121 16.4176 4.36539 16.4176 4.45604V13.8516ZM8.99998 5.60989C7.17855 5.60989 5.70327 7.08517 5.70327 8.90659C5.70327 10.728 7.17855 12.2033 8.99998 12.2033C10.8214 12.2033 12.2967 10.728 12.2967 8.90659C12.2967 7.08517 10.8214 5.60989 8.99998 5.60989ZM8.99998 10.8846C7.90794 10.8846 7.02195 9.99863 7.02195 8.90659C7.02195 7.81456 7.90794 6.92857 8.99998 6.92857C10.092 6.92857 10.978 7.81456 10.978 8.90659C10.978 9.99863 10.092 10.8846 8.99998 10.8846Z" fill="white"/>
</svg>
